<svg width="161" height="161" xmlns="http://www.w3.org/2000/svg" xmlns:xlink="http://www.w3.org/1999/xlink" xml:space="preserve" overflow="hidden"><g transform="translate(-29 -277)"><g><g><g><g><path d="M106.667 309.667C114.031 309.667 120 303.697 120 296.333 120 288.97 114.031 283 106.667 283 99.3028 283 93.3333 288.97 93.3333 296.333 93.3417 303.694 99.3063 309.658 106.667 309.667ZM106.667 286.333C112.189 286.333 116.667 290.81 116.667 296.333 116.667 301.856 112.189 306.333 106.667 306.333 101.144 306.333 96.6667 301.856 96.6667 296.333 96.6722 290.813 101.146 286.339 106.667 286.333Z" fill="#000000" fill-rule="nonzero" fill-opacity="1"/><path d="M132.283 374.398C132.253 372.791 133.064 371.285 134.423 370.427L134.662 370.243C137.975 367.155 139.825 362.807 139.752 358.278 139.578 353.787 137.967 349.47 135.155 345.963L119.757 323.783C119.313 323.155 118.883 322.507 118.45 321.855 117.491 320.349 116.442 318.902 115.31 317.522 112.887 314.709 109.379 313.064 105.667 313 102.408 313.041 99.2657 314.212 96.775 316.313 95.8333 316.98 93.8817 318.348 91.5567 319.98 86.7067 323.385 80.0567 328.048 77.7817 329.698 75.371 331.278 73.8503 333.906 73.6817 336.783 73.635 339.414 74.8562 341.906 76.9633 343.482 81.4283 347.002 85.94 350.532 90.455 354.023 91.1832 354.587 92.23 354.453 92.7933 353.725 93.3567 352.997 93.2232 351.95 92.495 351.387 87.995 347.902 83.4833 344.387 79.0383 340.873 77.757 339.953 77.002 338.468 77.0133 336.89 77.1572 335.055 78.1587 333.396 79.715 332.413 81.9983 330.763 88.6283 326.107 93.4717 322.708 95.805 321.072 97.7567 319.698 98.8217 318.937 100.728 317.304 103.142 316.384 105.652 316.333 108.397 316.39 110.989 317.613 112.778 319.697 113.821 320.972 114.788 322.308 115.675 323.697 116.125 324.372 116.572 325.042 117.023 325.685L132.488 347.952C134.881 350.912 136.259 354.563 136.42 358.367 136.471 361.889 135.048 365.273 132.495 367.7 130.221 369.211 128.883 371.785 128.953 374.515 129.027 375.813 129.267 377.096 129.667 378.333L131.517 384.667 91.3133 384.667 97.2467 362.38 102.217 343.905C102.308 343.542 102.271 343.159 102.113 342.82L98.7333 334.927 100.067 334.027C100.821 333.499 101.005 332.46 100.478 331.706 99.9632 330.969 98.9568 330.773 98.2033 331.263L91.6183 335.703C90.8645 336.232 90.6813 337.271 91.2095 338.025 91.7257 338.762 92.7337 338.956 93.4867 338.463L93.59 338.393 95.915 336.825 98.8417 343.6 95.39 356.45C95.39 356.473 95.365 356.49 95.36 356.512L94.0383 361.477 94.0283 361.512 86.9767 388 103.388 388 103.388 433 119.657 433 119.657 388 135.965 388 132.848 377.353C132.537 376.396 132.347 375.403 132.283 374.398ZM116.323 429.667 106.722 429.667 106.722 388 116.323 388Z" fill="#000000" fill-rule="nonzero" fill-opacity="1"/></g></g></g></g></g></svg>