<?xml version="1.0" encoding="UTF-8" standalone="no" ?>
<!DOCTYPE svg PUBLIC "-//W3C//DTD SVG 1.1//EN" "http://www.w3.org/Graphics/SVG/1.1/DTD/svg11.dtd">
<svg xmlns="http://www.w3.org/2000/svg" xmlns:xlink="http://www.w3.org/1999/xlink" version="1.1" width="49.9766177900256" height="38.18438213170496" viewBox="0 0 89 68" xml:space="preserve">
<desc>Created with Fabric.js 6.0.0-beta9</desc>
<defs>
</defs>
<g transform="matrix(1 0 0 1 40 29.5)"  >
<g style=""   >
		<g transform="matrix(1 0 0 1 -31.5 -21)"  >
<g style=""   >
		<g transform="matrix(1 0 0 1 -0.5 -0.5)"  >
<circle style="stroke: rgb(0,0,0); stroke-width: 0; stroke-dasharray: none; stroke-linecap: butt; stroke-dashoffset: 0; stroke-linejoin: miter; stroke-miterlimit: 4; fill: rgb(0,0,0); fill-rule: nonzero; opacity: 1;"  cx="0" cy="0" r="8" />
</g>
</g>
</g>
		<g transform="matrix(1 0 0 1 -10.5 -21)"  >
<g style=""   >
		<g transform="matrix(1 0 0 1 -0.5 -0.5)"  >
<circle style="stroke: rgb(0,0,0); stroke-width: 0; stroke-dasharray: none; stroke-linecap: butt; stroke-dashoffset: 0; stroke-linejoin: miter; stroke-miterlimit: 4; fill: rgb(0,0,0); fill-rule: nonzero; opacity: 1;"  cx="0" cy="0" r="8" />
</g>
</g>
</g>
		<g transform="matrix(1 0 0 1 10.5 -21)"  >
<g style=""   >
		<g transform="matrix(1 0 0 1 -0.5 -0.5)"  >
<circle style="stroke: rgb(0,0,0); stroke-width: 0; stroke-dasharray: none; stroke-linecap: butt; stroke-dashoffset: 0; stroke-linejoin: miter; stroke-miterlimit: 4; fill: rgb(0,0,0); fill-rule: nonzero; opacity: 1;"  cx="0" cy="0" r="8" />
</g>
</g>
</g>
		<g transform="matrix(1 0 0 1 31.5 -21)"  >
<g style=""   >
		<g transform="matrix(1 0 0 1 -0.5 -0.5)"  >
<circle style="stroke: rgb(0,0,0); stroke-width: 0; stroke-dasharray: none; stroke-linecap: butt; stroke-dashoffset: 0; stroke-linejoin: miter; stroke-miterlimit: 4; fill: rgb(0,0,0); fill-rule: nonzero; opacity: 1;"  cx="0" cy="0" r="8" />
</g>
</g>
</g>
		<g transform="matrix(1 0 0 1 -31.5 0)"  >
<g style=""   >
		<g transform="matrix(1 0 0 1 -0.5 -0.5)"  >
<circle style="stroke: rgb(0,0,0); stroke-width: 0; stroke-dasharray: none; stroke-linecap: butt; stroke-dashoffset: 0; stroke-linejoin: miter; stroke-miterlimit: 4; fill: rgb(0,0,0); fill-rule: nonzero; opacity: 1;"  cx="0" cy="0" r="8" />
</g>
</g>
</g>
		<g transform="matrix(1 0 0 1 -10.5 0)"  >
<g style=""   >
		<g transform="matrix(1 0 0 1 -0.5 -0.5)"  >
<circle style="stroke: rgb(0,0,0); stroke-width: 0; stroke-dasharray: none; stroke-linecap: butt; stroke-dashoffset: 0; stroke-linejoin: miter; stroke-miterlimit: 4; fill: rgb(0,0,0); fill-rule: nonzero; opacity: 1;"  cx="0" cy="0" r="8" />
</g>
</g>
</g>
		<g transform="matrix(1 0 0 1 10.5 0)"  >
<g style=""   >
		<g transform="matrix(1 0 0 1 -0.5 -0.5)"  >
<circle style="stroke: rgb(0,0,0); stroke-width: 0; stroke-dasharray: none; stroke-linecap: butt; stroke-dashoffset: 0; stroke-linejoin: miter; stroke-miterlimit: 4; fill: rgb(0,0,0); fill-rule: nonzero; opacity: 1;"  cx="0" cy="0" r="8" />
</g>
</g>
</g>
		<g transform="matrix(1 0 0 1 31.5 0)"  >
<g style=""   >
		<g transform="matrix(1 0 0 1 -0.5 -0.5)"  >
<circle style="stroke: rgb(0,0,0); stroke-width: 0; stroke-dasharray: none; stroke-linecap: butt; stroke-dashoffset: 0; stroke-linejoin: miter; stroke-miterlimit: 4; fill: rgb(0,0,0); fill-rule: nonzero; opacity: 1;"  cx="0" cy="0" r="8" />
</g>
</g>
</g>
		<g transform="matrix(1 0 0 1 -31.5 21)"  >
<g style=""   >
		<g transform="matrix(1 0 0 1 -0.5 -0.5)"  >
<circle style="stroke: rgb(0,0,0); stroke-width: 0; stroke-dasharray: none; stroke-linecap: butt; stroke-dashoffset: 0; stroke-linejoin: miter; stroke-miterlimit: 4; fill: rgb(0,0,0); fill-rule: nonzero; opacity: 1;"  cx="0" cy="0" r="8" />
</g>
</g>
</g>
		<g transform="matrix(1 0 0 1 -10.5 21)"  >
<g style=""   >
		<g transform="matrix(1 0 0 1 -0.5 -0.5)"  >
<circle style="stroke: rgb(0,0,0); stroke-width: 0; stroke-dasharray: none; stroke-linecap: butt; stroke-dashoffset: 0; stroke-linejoin: miter; stroke-miterlimit: 4; fill: rgb(0,0,0); fill-rule: nonzero; opacity: 1;"  cx="0" cy="0" r="8" />
</g>
</g>
</g>
		<g transform="matrix(1 0 0 1 10.5 21)"  >
<g style=""   >
		<g transform="matrix(1 0 0 1 -0.5 -0.5)"  >
<linearGradient id="SVGID_170" gradientUnits="userSpaceOnUse" gradientTransform="matrix(1 0 0 1 -8 -8)"  x1="0" y1="0" x2="16" y2="0">
<stop offset="99.00000000000003%" style="stop-color:#000000;"/>
<stop offset="99.00000000000003%" style="stop-color:#7b219f;"/>
</linearGradient>
<circle style="stroke: rgb(0,0,0); stroke-width: 0; stroke-dasharray: none; stroke-linecap: butt; stroke-dashoffset: 0; stroke-linejoin: miter; stroke-miterlimit: 4; fill: url(#SVGID_170); fill-rule: nonzero; opacity: 1;"  cx="0" cy="0" r="8" />
</g>
</g>
</g>
		<g transform="matrix(1 0 0 1 31.5 21)"  >
<g style=""   >
		<g transform="matrix(1 0 0 1 -0.5 -0.5)"  >
<linearGradient id="SVGID_172" gradientUnits="userSpaceOnUse" gradientTransform="matrix(1 0 0 1 -8 -8)"  x1="0" y1="0" x2="16" y2="0">
<stop offset="33.999999999999986%" style="stop-color:#7b219f;"/>
<stop offset="33.999999999999986%" style="stop-color:#e32400;"/>
</linearGradient>
<circle style="stroke: rgb(0,0,0); stroke-width: 0; stroke-dasharray: none; stroke-linecap: butt; stroke-dashoffset: 0; stroke-linejoin: miter; stroke-miterlimit: 4; fill: url(#SVGID_172); fill-rule: nonzero; opacity: 1;"  cx="0" cy="0" r="8" />
</g>
</g>
</g>
</g>
</g>
</svg>